<?xml version="1.0" encoding="utf-8"?>
<svg width="40px" height="40px" viewBox="0 0 40 40" version="1.1" xmlns:xlink="http://www.w3.org/1999/xlink" xmlns="http://www.w3.org/2000/svg">
  <defs>
    <path d="M40 0L40 0L40 40L0 40L0 0L40 0Z" id="path_1" />
    <clipPath id="clip_1">
      <use xlink:href="#path_1" />
    </clipPath>
  </defs>
  <g id="Notification" clip-path="url(#clip_1)">
    <path d="M40 0L40 0L40 40L0 40L0 0L40 0Z" id="Notification" fill="none" stroke="none" />
    <path d="M20 0C18.2406 0 16.8 1.44062 16.8 3.2C16.8 3.6125 16.8813 4.0125 17.025 4.375C12.525 5.54375 9.6 9.45313 9.6 14.4C9.6 20.6656 8.0625 23.5187 6.6 25.125C5.86875 25.9281 5.14688 26.4156 4.525 26.875C4.2125 27.1031 3.92812 27.3312 3.675 27.625C3.42188 27.9187 3.2 28.3375 3.2 28.8C3.2 29.9 3.875 30.8344 4.825 31.45C5.775 32.0656 7.02188 32.4625 8.525 32.775C10.475 33.1781 12.8813 33.3906 15.525 33.5C15.325 34.0313 15.2 34.6031 15.2 35.2C15.2 37.8406 17.3594 40 20 40C22.6406 40 24.8 37.8406 24.8 35.2C24.8 34.6 24.6781 34.0281 24.475 33.5C27.1188 33.3906 29.525 33.1781 31.475 32.775C32.9781 32.4625 34.225 32.0656 35.175 31.45C36.125 30.8344 36.8 29.9 36.8 28.8C36.8 28.3375 36.5781 27.9187 36.325 27.625C36.0719 27.3312 35.7875 27.1031 35.475 26.875C34.8531 26.4156 34.1313 25.9281 33.4 25.125C31.9375 23.5187 30.4 20.6656 30.4 14.4C30.4 9.45625 27.4688 5.55 22.975 4.375C23.1188 4.0125 23.2 3.6125 23.2 3.2C23.2 1.44062 21.7594 0 20 0L20 0ZM20 1.6C20.8938 1.6 21.6 2.30625 21.6 3.2C21.6 4.09375 20.8938 4.8 20 4.8C19.1063 4.8 18.4 4.09375 18.4 3.2C18.4 2.30625 19.1063 1.6 20 1.6L20 1.6ZM21.875 5.75C26.1406 6.50938 28.8 9.80625 28.8 14.4C28.8 20.9344 30.4625 24.2906 32.2 26.2C33.0688 27.1531 33.9469 27.75 34.525 28.175C34.8125 28.3875 35.0281 28.5656 35.125 28.675C35.2219 28.7844 35.2 28.775 35.2 28.8C35.2 29.3 34.9688 29.6656 34.3 30.1C33.6313 30.5344 32.5438 30.9375 31.15 31.225C28.3625 31.8031 24.3938 32 20 32C15.6063 32 11.6375 31.8031 8.85 31.225C7.45625 30.9375 6.36875 30.5344 5.7 30.1C5.03125 29.6656 4.8 29.3 4.8 28.8C4.8 28.775 4.77812 28.7844 4.875 28.675C4.97188 28.5656 5.1875 28.3875 5.475 28.175C6.05312 27.75 6.93125 27.1531 7.8 26.2C9.5375 24.2906 11.2 20.9344 11.2 14.4C11.2 9.80937 13.8625 6.5375 18.125 5.775C18.6563 6.16562 19.2969 6.4 20 6.4C20.7094 6.4 21.3438 6.14688 21.875 5.75L21.875 5.75ZM17.25 33.55C18.1469 33.5687 19.0594 33.6 20 33.6C20.9406 33.6 21.8531 33.5687 22.75 33.55C23.0344 34.0313 23.2 34.6 23.2 35.2C23.2 36.9781 21.7781 38.4 20 38.4C18.2219 38.4 16.8 36.9781 16.8 35.2C16.8 34.5938 16.9594 34.0313 17.25 33.55L17.25 33.55Z" id="Shape" fill="#FFFFFF" fill-rule="evenodd" stroke="none" />
  </g>
</svg>